<?xml version="1.0" encoding="utf-8"?>
<!-- Generator: Adobe Illustrator 24.0.2, SVG Export Plug-In . SVG Version: 6.00 Build 0)  -->
<svg version="1.1" id="Layer_1" xmlns="http://www.w3.org/2000/svg" xmlns:xlink="http://www.w3.org/1999/xlink" x="0px" y="0px"
	 viewBox="0 0 64 52" style="enable-background:new 0 0 64 52;" xml:space="preserve">
<g>
	<polygon points="22,43 16.1,49 20.3,49 22,47.3 	"/>
	<polygon points="27.1,32.5 27.1,32.5 27.1,30.3 31.4,26 27.2,26 27.1,26 27.1,26 27.1,26 27.1,26.1 27.1,30.4 	"/>
	<polygon points="35.8,11.6 35.9,11.6 36.4,9.7 39.1,5.2 35.8,5.2 35.8,8.4 	"/>
	<polygon points="30.7,35.2 30.7,35.7 30.8,35.7 30.8,35.1 36.7,29.2 32.4,29.2 30.8,30.8 30.8,29.2 30.7,29.2 30.7,30.9 	"/>
	<polygon points="35,3.5 35,2.5 34,3.5 	"/>
	<polygon points="28.5,10 31.8,10 35,6.8 35,3.5 33.9,3.5 28.5,8.9 	"/>
	<polygon points="31.7,10 28.5,10 28.5,13.2 	"/>
	<polygon points="35,18.1 40.9,12.2 36.6,12.2 35,13.8 	"/>
	<polygon points="41.5,11.7 41.5,7.4 36.7,12.2 41,12.2 	"/>
	<polygon points="28.5,18.2 26.7,19.9 28.5,21.6 	"/>
	<polygon points="37.6,25.2 35.4,25.2 35.4,27.3 	"/>
	<polygon points="41.4,15.1 36.4,20.2 41.4,20.2 	"/>
	<polygon points="35,23 35,25.2 37.1,25.2 41.5,20.9 41.5,18.7 39.3,18.7 	"/>
	<polygon points="46.3,23 48,21.3 48,17.1 42,23 	"/>
	<polygon points="41.9,23.5 41.9,27.8 46.6,23 42.4,23 	"/>
	<polygon points="49.9,16.8 51.5,15.2 51.5,10.9 45.6,16.8 	"/>
	<polygon points="48,17.3 48,21.6 52.7,16.8 48.5,16.8 	"/>
	<polygon points="48.3,7.7 48.3,5.6 46.2,7.7 	"/>
	<polygon points="42.4,14.1 44.5,14.1 48.8,9.8 48.8,7.7 46.7,7.7 42.4,12 	"/>
	<polygon points="47.4,12.6 42.4,12.6 42.4,17.7 	"/>
	<polygon points="28.5,9.8 28.5,8.8 27.5,9.8 	"/>
	<polygon points="23.7,18.3 25.3,18.3 28.5,15.1 28.5,11.9 27.5,11.9 23.4,16.5 	"/>
	<polygon points="25.4,18.3 23.3,18.3 24.4,19.4 	"/>
	<polygon points="2.5,29.4 2.5,29.9 3.1,29.4 	"/>
	<polygon points="9,23.5 9,23 5.3,23 2.5,25.7 2.5,29.4 3.1,29.4 	"/>
	<polygon points="8.6,18.7 4.9,22.4 8.6,22.4 	"/>
	<polygon points="49,29.5 48,29.5 48,30.5 	"/>
	<polygon points="48.4,29.5 49.4,29.5 54.8,24.1 54.8,23.1 51.6,23.1 48.4,26.2 	"/>
	<polygon points="56,23.1 56,19.8 52.7,23.1 	"/>
	<polygon points="50.5,42.5 54.4,42.5 54.5,42.4 54.5,38.1 50.3,42.3 	"/>
	<polygon points="53.1,44.3 55,42.5 51.2,42.5 	"/>
	<polygon points="54.5,33.3 58.1,29.7 54.5,29.7 	"/>
	<polygon points="60.7,23 60.7,22.5 60.2,23 	"/>
	<polygon points="54.5,28.9 54.5,29.5 58.2,29.5 60.9,26.7 60.9,23 60.4,23 	"/>
	<polygon points="15.5,7 15.5,2.7 9.1,9.1 13.4,9.1 	"/>
	<polygon points="9.9,9.4 9.9,9.4 9.9,13.7 14.2,9.4 	"/>
	<polygon points="21.6,10.6 21.6,10 17.9,10 15.2,12.8 15.2,16.5 15.8,16.5 	"/>
	<polygon points="21.8,6.3 18.1,10 21.8,10 	"/>
	<polygon points="15.4,16.7 15.4,17.2 16,16.7 	"/>
	<polygon points="21.9,15.4 20.9,16.4 21.9,16.4 	"/>
	<polygon points="21.8,18.2 21.8,15 20.8,15 15.3,20.4 15.3,21.4 18.6,21.4 	"/>
	<polygon points="15.5,24.9 18.7,21.7 15.5,21.7 	"/>
	<polygon points="9,23.1 9,23.6 9.5,23.1 	"/>
	<polygon points="9,23 9.5,23 15.4,17.1 15.4,16.5 11.7,16.5 9,19.2 	"/>
	<polygon points="15.2,12.8 11.5,16.5 15.2,16.5 	"/>
	<polygon points="58.2,37.8 58.2,34.2 54.5,37.8 	"/>
	<polygon points="21.9,10.1 22.5,10.1 28.4,4.2 28.4,3.7 24.6,3.7 21.9,6.4 	"/>
	<polygon points="22.2,10.1 21.6,10.1 21.6,10.6 	"/>
	<polygon points="30.9,24.9 30.9,20.6 26.1,25.4 30.4,25.4 	"/>
	<polygon points="28.5,21.6 28.9,22 34.4,16.5 30.1,16.5 28.5,18.1 	"/>
	<polygon points="17.1,28 15.5,29.7 15.5,33.9 21.4,28 	"/>
	<polygon points="22.6,26.4 22.6,22.1 17.8,26.9 22.1,26.9 	"/>
	<polygon points="31.4,24.4 33.6,26.5 35,25.2 35,23 32.8,23 	"/>
	<polygon points="34.8,20.9 32.7,23 34.8,23 	"/>
	<polygon points="23.4,36 21.3,36 17,40.3 17,42.5 19.1,42.5 23.4,38.1 	"/>
	<polygon points="15.5,43.4 15.5,45.5 17.6,43.4 	"/>
	<polygon points="19.9,34.5 22,34.5 22,32.4 	"/>
	<polygon points="15.3,20.6 14.4,21.5 15.3,21.5 	"/>
	<polygon points="15.5,21.5 14.4,21.5 9,27 9,28 12.3,28 15.5,24.8 	"/>
	<polygon points="9.1,28 9.1,31.2 12.3,28 	"/>
	<polygon points="16.2,34.3 16.2,28.8 10.1,34.9 15.5,34.9 	"/>
	<polygon points="54.5,29.3 54.5,28.8 54,29.3 	"/>
	<polygon points="54.5,29.5 53.9,29.5 48,35.4 48,36 51.7,36 54.5,33.2 	"/>
	<polygon points="48,40.1 51.6,36.5 48,36.5 	"/>
	<polygon points="41.5,33.3 41.5,34.5 43.1,36 48,31.1 48,30.1 44.7,30.1 	"/>
	<polygon points="46.9,26.9 43.6,30.1 46.9,30.1 	"/>
	<polygon points="41.2,33.2 40.6,33.8 41.2,34.3 	"/>
	<polygon points="47.7,36 47.7,34.5 46.2,36 	"/>
	<polygon points="45.6,37.8 47.8,39.9 48,39.7 48,36 47.4,36 	"/>
</g>
</svg>
